<svg xmlns="http://www.w3.org/2000/svg" width="1600" height="1200" viewBox="0 0 1600 1200">
  <defs>
    <linearGradient id="bg" x1="0" y1="0" x2="0" y2="1">
      <stop offset="0" stop-color="#ffffff"/>
      <stop offset="1" stop-color="#f3f7ff"/>
    </linearGradient>
    <radialGradient id="glow" cx="30%" cy="25%" r="80%">
      <stop offset="0" stop-color="#005EB8" stop-opacity="0.22"/>
      <stop offset="0.6" stop-color="#005EB8" stop-opacity="0.06"/>
      <stop offset="1" stop-color="#005EB8" stop-opacity="0"/>
    </radialGradient>
  </defs>
  <rect width="1600" height="1200" fill="url(#bg)"/>
  <rect width="1600" height="1200" fill="url(#glow)"/>

  <!-- two speech bubbles slightly misaligned -->
  <g transform="translate(260 280)" fill="#005EB8" opacity="0.12">
    <path d="M0 120 C0 54 54 0 120 0 H520 C586 0 640 54 640 120 V340 C640 406 586 460 520 460 H210 L140 540 V460 H120 C54 460 0 406 0 340 Z"/>
  </g>
  <g transform="translate(520 420)" fill="#005EB8" opacity="0.09">
    <path d="M0 120 C0 54 54 0 120 0 H540 C606 0 660 54 660 120 V330 C660 396 606 450 540 450 H220 L150 530 V450 H120 C54 450 0 396 0 330 Z"/>
  </g>

  <!-- text lines -->
  <g opacity="0.16" fill="#0b1b2b">
    <rect x="340" y="340" width="520" height="14" rx="7"/>
    <rect x="340" y="376" width="420" height="12" rx="6"/>
    <rect x="340" y="404" width="460" height="12" rx="6"/>

    <rect x="600" y="520" width="560" height="14" rx="7"/>
    <rect x="600" y="556" width="440" height="12" rx="6"/>
    <rect x="600" y="584" width="520" height="12" rx="6"/>
  </g>

  <path d="M0 980 C320 920, 520 950, 760 1000 C1000 1050, 1260 1090, 1600 1040 L1600 1200 L0 1200 Z" fill="#005EB8" opacity="0.06"/>
</svg>
