<svg xmlns="http://www.w3.org/2000/svg" width="1600" height="1200" viewBox="0 0 1600 1200">
  <defs>
    <linearGradient id="bg" x1="0" y1="0" x2="0" y2="1">
      <stop offset="0" stop-color="#ffffff"/>
      <stop offset="1" stop-color="#f3f7ff"/>
    </linearGradient>
    <radialGradient id="glow" cx="65%" cy="22%" r="80%">
      <stop offset="0" stop-color="#005EB8" stop-opacity="0.18"/>
      <stop offset="0.6" stop-color="#005EB8" stop-opacity="0.05"/>
      <stop offset="1" stop-color="#005EB8" stop-opacity="0"/>
    </radialGradient>
  </defs>
  <rect width="1600" height="1200" fill="url(#bg)"/>
  <rect width="1600" height="1200" fill="url(#glow)"/>

  <!-- simplified home outlines -->
  <g opacity="0.12" stroke="#0b1b2b" stroke-width="4" fill="none">
    <path d="M260 760 V520 L520 340 L780 520 V760"/>
    <path d="M900 820 V560 L1110 420 L1320 560 V820"/>
    <path d="M420 760 V620 H620 V760"/>
    <path d="M1020 820 V660 H1200 V820"/>
  </g>

  <!-- search lens -->
  <g transform="translate(1040 420)" fill="none" stroke="#005EB8" stroke-linecap="round" stroke-linejoin="round">
    <circle cx="0" cy="0" r="170" stroke-width="18" opacity="0.22"/>
    <circle cx="0" cy="0" r="105" stroke-width="14" opacity="0.26"/>
    <path d="M130 130 L250 250" stroke-width="22" opacity="0.22"/>
  </g>

  <path d="M0 980 C300 920, 520 950, 760 1000 C1000 1050, 1260 1090, 1600 1040 L1600 1200 L0 1200 Z" fill="#005EB8" opacity="0.06"/>
</svg>
