<svg xmlns="http://www.w3.org/2000/svg" width="1600" height="1200" viewBox="0 0 1600 1200">
  <defs>
    <linearGradient id="bg" x1="0" y1="0" x2="0" y2="1">
      <stop offset="0" stop-color="#ffffff"/>
      <stop offset="1" stop-color="#f2f7ff"/>
    </linearGradient>
    <radialGradient id="glow" cx="30%" cy="25%" r="85%">
      <stop offset="0" stop-color="#005EB8" stop-opacity="0.18"/>
      <stop offset="0.6" stop-color="#005EB8" stop-opacity="0.05"/>
      <stop offset="1" stop-color="#005EB8" stop-opacity="0"/>
    </radialGradient>
  </defs>
  <rect width="1600" height="1200" fill="url(#bg)"/>
  <rect width="1600" height="1200" fill="url(#glow)"/>

  <!-- timeline nodes -->
  <g transform="translate(260 540)" fill="#005EB8" opacity="0.14">
    <rect x="0" y="0" width="1080" height="18" rx="9"/>
    <circle cx="0" cy="9" r="44"/>
    <circle cx="360" cy="9" r="44"/>
    <circle cx="720" cy="9" r="44"/>
    <circle cx="1080" cy="9" r="44"/>
  </g>

  <g opacity="0.16" fill="#0b1b2b">
    <rect x="260" y="620" width="240" height="14" rx="7"/>
    <rect x="620" y="620" width="240" height="14" rx="7"/>
    <rect x="980" y="620" width="240" height="14" rx="7"/>
  </g>

  <path d="M0 980 C280 920, 520 950, 760 1000 C1000 1050, 1240 1090, 1600 1035 L1600 1200 L0 1200 Z" fill="#005EB8" opacity="0.06"/>
</svg>
