<svg xmlns="http://www.w3.org/2000/svg" width="1600" height="1200" viewBox="0 0 1600 1200">
  <defs>
    <linearGradient id="bg" x1="0" y1="0" x2="0" y2="1">
      <stop offset="0" stop-color="#ffffff"/>
      <stop offset="1" stop-color="#f3f7ff"/>
    </linearGradient>
    <radialGradient id="glow" cx="68%" cy="26%" r="85%">
      <stop offset="0" stop-color="#005EB8" stop-opacity="0.18"/>
      <stop offset="0.6" stop-color="#005EB8" stop-opacity="0.05"/>
      <stop offset="1" stop-color="#005EB8" stop-opacity="0"/>
    </radialGradient>
  </defs>
  <rect width="1600" height="1200" fill="url(#bg)"/>
  <rect width="1600" height="1200" fill="url(#glow)"/>

  <!-- boxes + route -->
  <g transform="translate(280 420)" fill="#005EB8" opacity="0.14">
    <rect x="0" y="120" width="220" height="180" rx="22"/>
    <rect x="260" y="0" width="240" height="300" rx="22"/>
    <rect x="540" y="90" width="260" height="210" rx="22"/>
  </g>

  <g transform="translate(360 340)" fill="none" stroke="#005EB8" stroke-width="18" stroke-linecap="round" stroke-linejoin="round" opacity="0.22">
    <path d="M0 520 C220 410 340 380 520 290 C700 200 860 210 1020 140"/>
    <path d="M1030 130 L1010 200"/>
    <path d="M1030 130 L960 140"/>
  </g>

  <path d="M0 980 C280 920, 520 950, 760 1000 C1000 1050, 1240 1090, 1600 1035 L1600 1200 L0 1200 Z" fill="#005EB8" opacity="0.06"/>
</svg>
