<svg xmlns="http://www.w3.org/2000/svg" width="1600" height="1200" viewBox="0 0 1600 1200">
  <defs>
    <linearGradient id="bg" x1="0" y1="0" x2="0" y2="1">
      <stop offset="0" stop-color="#ffffff"/>
      <stop offset="1" stop-color="#f2f7ff"/>
    </linearGradient>
    <radialGradient id="glow" cx="55%" cy="20%" r="85%">
      <stop offset="0" stop-color="#005EB8" stop-opacity="0.18"/>
      <stop offset="0.6" stop-color="#005EB8" stop-opacity="0.05"/>
      <stop offset="1" stop-color="#005EB8" stop-opacity="0"/>
    </radialGradient>
  </defs>

  <rect width="1600" height="1200" fill="url(#bg)"/>
  <rect width="1600" height="1200" fill="url(#glow)"/>

  <!-- map pin / onsite presence motif -->
  <g transform="translate(980 260)" fill="#005EB8" opacity="0.14">
    <path d="M200 0 C90 0 0 90 0 200 C0 400 200 620 200 620 C200 620 400 400 400 200 C400 90 310 0 200 0 Z"/>
    <circle cx="200" cy="200" r="92" fill="#005EB8" opacity="0.18"/>
  </g>

  <g opacity="0.14" fill="#0b1b2b">
    <rect x="220" y="380" width="520" height="14" rx="7"/>
    <rect x="220" y="416" width="440" height="12" rx="6"/>
    <rect x="220" y="444" width="480" height="12" rx="6"/>

    <rect x="220" y="520" width="620" height="14" rx="7"/>
    <rect x="220" y="556" width="520" height="12" rx="6"/>
    <rect x="220" y="584" width="560" height="12" rx="6"/>
  </g>

  <path d="M0 980 C300 920, 520 950, 760 1000 C1000 1050, 1260 1090, 1600 1040 L1600 1200 L0 1200 Z" fill="#005EB8" opacity="0.06"/>
</svg>
