<svg xmlns="http://www.w3.org/2000/svg" width="1600" height="1200" viewBox="0 0 1600 1200">
  <defs>
    <linearGradient id="bg" x1="0" y1="0" x2="0" y2="1">
      <stop offset="0" stop-color="#ffffff"/>
      <stop offset="1" stop-color="#f2f7ff"/>
    </linearGradient>
    <radialGradient id="glow" cx="45%" cy="20%" r="85%">
      <stop offset="0" stop-color="#005EB8" stop-opacity="0.18"/>
      <stop offset="0.6" stop-color="#005EB8" stop-opacity="0.05"/>
      <stop offset="1" stop-color="#005EB8" stop-opacity="0"/>
    </radialGradient>
  </defs>
  <rect width="1600" height="1200" fill="url(#bg)"/>
  <rect width="1600" height="1200" fill="url(#glow)"/>

  <!-- stacked photo frames / notes -->
  <g transform="translate(280 260)">
    <rect x="0" y="0" width="980" height="600" rx="34" fill="#005EB8" opacity="0.08"/>
    <rect x="70" y="90" width="420" height="260" rx="22" fill="#005EB8" opacity="0.14"/>
    <rect x="520" y="90" width="390" height="18" rx="9" fill="#0b1b2b" opacity="0.18"/>
    <rect x="520" y="130" width="360" height="14" rx="7" fill="#0b1b2b" opacity="0.12"/>
    <rect x="520" y="158" width="330" height="14" rx="7" fill="#0b1b2b" opacity="0.10"/>
    <rect x="520" y="220" width="300" height="14" rx="7" fill="#0b1b2b" opacity="0.10"/>
    <rect x="520" y="248" width="340" height="14" rx="7" fill="#0b1b2b" opacity="0.10"/>

    <rect x="70" y="380" width="840" height="14" rx="7" fill="#0b1b2b" opacity="0.10"/>
    <rect x="70" y="412" width="760" height="12" rx="6" fill="#0b1b2b" opacity="0.09"/>
    <rect x="70" y="440" width="720" height="12" rx="6" fill="#0b1b2b" opacity="0.09"/>
  </g>

  <path d="M0 980 C300 920, 520 950, 760 1000 C1000 1050, 1260 1090, 1600 1040 L1600 1200 L0 1200 Z" fill="#005EB8" opacity="0.06"/>
</svg>
